# xmcd CD database file generated by Grip 2.7
# 
# Track frame offsets:
#       150
#       14200
#       29815
#       43342
#       61337
#       80682
#       101420
#       118072
#       131677
#       145740
# 
# Disc length: 2136 seconds
# 
# Revision: 3
# Processed by: cddbd v1.4b41PL1 Copyright (c) Steve Scherf et al.
# Submitted via: Grip 2.7
# 
DISCID=9608560a
DTITLE=Louis Armstrong - Sugar
DYEAR=1900
DGENRE=
TTITLE0=I Want a Little Girl
TTITLE1=Sugar
TTITLE2=Do You Know What It Means To Miss New Orleans
TTITLE3=Ain't Misbehavin'
TTITLE4=Back O'Town Blues
TTITLE5=Save It, Pretty Mama
TTITLE6=St. James Infirmary
TTITLE7=Jack Armstrong Blues
TTITLE8=Rockin' Char
TTITLE9=Someday You'll Be Sorry
EXTD=
EXTT0=
EXTT1=
EXTT2=
EXTT3=
EXTT4=
EXTT5=
EXTT6=
EXTT7=
EXTT8=
EXTT9=
PLAYORDER=
